<svg xmlns="http://www.w3.org/2000/svg" width="90" height="90" viewBox="0 0 90 90">
  <circle cx="45" cy="45" r="45" fill="#139bd0"/>
  <path fill="#fff" d="M46.5 55.8l-5.2 5a2 2 0 0 1-2 .8c-.7 0-1-.2-1.2-.8l-3.7-12a.8.8 0 0 0-.7-.8l-9.2-3a3.4 3.4 0 0 1-1.4-.5c-.7-.5-.8-1.2-.2-1.7a4.5 4.5 0 0 1 1.8-1c3.7-1.6 7.5-3 11.3-4.5l28.5-11c1.8-.7 3.2.3 3 2.2a25.3 25.3 0 0 1-.7 3.8l-6.4 29.4c-.5 2.3-2 3-4 1.5l-9.6-7-.5-.4zm-7.2 3v-.4c.3-2.2.6-4.4.7-6.6a1.3 1.3 0 0 1 .6-1.2l9-8c3-3 6.4-6 9.6-8.8l.5-.8h-1a2.4 2.4 0 0 0-1 .5L36 47a.8.8 0 0 0-.2 1l1.5 4.6 2 6z"/>
</svg>
