<svg xmlns="http://www.w3.org/2000/svg" viewBox="0 0 23.5 23.5"><path fill="#0588d9" d="M22.3 22.3c-.5.4-1 .7-1.6.7H20c-.3 0-.5-.1-.8-.3-.2-.1-.5-.3-.7-.6-.2-.2-.3-.6-.3-1l-.8.4c-.4.2-.7.4-.9.5-.3.2-.7.3-1.1.4-.4.1-.8.2-1.2.4-.8.2-1.6.2-2.5.2-2.3 0-4.4-.6-6.2-1.9-1.8-1.3-3.2-2.9-4.1-4.9-.3-.7-.5-1.4-.7-2.2-.2-.8-.3-1.5-.3-2.3 0-.8.1-1.6.3-2.3.2-.7.5-1.4.8-2.2.9-2 2.3-3.6 4.1-4.9C7.4 1.1 9.5.4 11.8.4H13c1.4.2 2.7.6 3.9 1.2 1.2.7 2.3 1.5 3.2 2.5.9 1 1.6 2.2 2.1 3.4.5 1.5.8 2.8.8 4.3v9c0 .5-.2 1.1-.7 1.5zM17.9 9.2c-.4-.8-.8-1.5-1.5-2.1-.6-.6-1.3-1.1-2.1-1.5-.8-.4-1.7-.6-2.6-.6-.9 0-1.7.2-2.5.5-.8.4-1.5.9-2.1 1.6-.6.6-1.1 1.3-1.5 2.1-.2.5-.4 1-.4 1.5h3c.4-1.7 1.9-2.9 3.6-2.9 2.1 0 3.7 1.7 3.7 3.7s-1.7 3.7-3.7 3.7c-1.8 0-3.2-1.2-3.6-2.8H5.1c.1.7.2 1.3.5 1.9.4.8.9 1.5 1.5 2.1.6.6 1.3 1.1 2.1 1.4.8.4 1.6.5 2.4.5.9 0 1.8-.2 2.6-.5s1.5-.8 2.1-1.4c.6-.6 1.1-1.3 1.4-2.1.4-.8.5-1.7.5-2.6.2-.8 0-1.7-.3-2.5z"/></svg>
